<svg width="330" height="95" viewBox="0 0 330 95" fill="none" xmlns="http://www.w3.org/2000/svg">
<path d="M0 13C0 10.7909 1.79086 9 4 9H84V89C84 91.2091 82.2091 93 80 93H4C1.79086 93 0 91.2091 0 89V13Z" fill="#00ADD8"/>
<path d="M0 37C0 34.7908 1.79086 33 4 33H60V89C60 91.2091 58.2091 93 56 93H4C1.79086 93 0 91.2091 0 89V37Z" fill="#25BDE3"/>
<path d="M0 63C0 60.7908 1.79086 59 4 59H34V89C34 91.2091 32.2091 93 30 93H4C1.79086 93 0 91.2091 0 89V63Z" fill="#63D3EF"/>
<path d="M112.358 19.1989C112.121 18.4318 111.795 17.7453 111.378 17.1392C110.971 16.5237 110.478 15.9981 109.901 15.5625C109.332 15.1269 108.679 14.8002 107.94 14.5824C107.202 14.3551 106.397 14.2415 105.526 14.2415C103.963 14.2415 102.571 14.6345 101.349 15.4205C100.128 16.2064 99.1667 17.3617 98.4659 18.8864C97.7746 20.4015 97.429 22.2481 97.429 24.4261C97.429 26.6231 97.7746 28.4839 98.4659 30.0085C99.1572 31.5331 100.118 32.6932 101.349 33.4886C102.58 34.2746 104.01 34.6676 105.639 34.6676C107.116 34.6676 108.395 34.3835 109.474 33.8153C110.563 33.2472 111.402 32.4422 111.989 31.4006C112.576 30.3494 112.869 29.1184 112.869 27.7074L114.062 27.892H106.165V23.7727H117.969V27.267C117.969 29.7576 117.438 31.9119 116.378 33.7301C115.317 35.5483 113.859 36.9498 112.003 37.9347C110.147 38.91 108.016 39.3977 105.611 39.3977C102.931 39.3977 100.578 38.7964 98.5511 37.5938C96.5341 36.3816 94.9574 34.6629 93.821 32.4375C92.6941 30.2027 92.1307 27.5511 92.1307 24.483C92.1307 22.1345 92.4621 20.0369 93.125 18.1903C93.7973 16.3438 94.7348 14.7765 95.9375 13.4886C97.1402 12.1913 98.5511 11.2064 100.17 10.5341C101.79 9.85227 103.551 9.51136 105.455 9.51136C107.064 9.51136 108.565 9.74811 109.957 10.2216C111.349 10.6856 112.585 11.3485 113.665 12.2102C114.754 13.072 115.649 14.0947 116.349 15.2784C117.05 16.4621 117.509 17.7689 117.727 19.1989H112.358ZM132.354 39.4261C130.224 39.4261 128.377 38.9574 126.815 38.0199C125.252 37.0824 124.04 35.7708 123.178 34.0852C122.326 32.3996 121.9 30.4299 121.9 28.1761C121.9 25.9223 122.326 23.9479 123.178 22.2528C124.04 20.5578 125.252 19.2415 126.815 18.304C128.377 17.3665 130.224 16.8977 132.354 16.8977C134.485 16.8977 136.332 17.3665 137.894 18.304C139.457 19.2415 140.664 20.5578 141.516 22.2528C142.378 23.9479 142.809 25.9223 142.809 28.1761C142.809 30.4299 142.378 32.3996 141.516 34.0852C140.664 35.7708 139.457 37.0824 137.894 38.0199C136.332 38.9574 134.485 39.4261 132.354 39.4261ZM132.383 35.3068C133.538 35.3068 134.504 34.9896 135.281 34.3551C136.057 33.7112 136.635 32.8494 137.013 31.7699C137.402 30.6903 137.596 29.4877 137.596 28.1619C137.596 26.8267 137.402 25.6193 137.013 24.5398C136.635 23.4508 136.057 22.5843 135.281 21.9403C134.504 21.2964 133.538 20.9744 132.383 20.9744C131.199 20.9744 130.214 21.2964 129.428 21.9403C128.652 22.5843 128.069 23.4508 127.681 24.5398C127.302 25.6193 127.113 26.8267 127.113 28.1619C127.113 29.4877 127.302 30.6903 127.681 31.7699C128.069 32.8494 128.652 33.7112 129.428 34.3551C130.214 34.9896 131.199 35.3068 132.383 35.3068Z" fill="black"/>
<path d="M98.7273 69H94.2912V55.9091H98.8168C100.116 55.9091 101.233 56.1712 102.166 56.6953C103.104 57.2152 103.824 57.9631 104.327 58.9389C104.83 59.9148 105.081 61.0824 105.081 62.4418C105.081 63.8054 104.827 64.9773 104.32 65.9574C103.817 66.9375 103.091 67.6896 102.141 68.2138C101.195 68.7379 100.057 69 98.7273 69ZM96.6626 66.9482H98.6122C99.5241 66.9482 100.285 66.782 100.894 66.4496C101.504 66.1129 101.962 65.6122 102.268 64.9474C102.575 64.2784 102.729 63.4432 102.729 62.4418C102.729 61.4403 102.575 60.6094 102.268 59.9489C101.962 59.2841 101.508 58.7876 100.907 58.4595C100.31 58.1271 99.5689 57.9609 98.6825 57.9609H96.6626V66.9482ZM110.057 69.1982C109.435 69.1982 108.875 69.0874 108.376 68.8658C107.882 68.6399 107.49 68.3075 107.2 67.8686C106.914 67.4297 106.772 66.8885 106.772 66.245C106.772 65.6911 106.874 65.233 107.078 64.8707C107.283 64.5085 107.562 64.2188 107.916 64.0014C108.27 63.7841 108.668 63.62 109.111 63.5092C109.559 63.3942 110.021 63.3111 110.498 63.2599C111.074 63.2003 111.54 63.147 111.898 63.1001C112.256 63.049 112.516 62.9723 112.678 62.87C112.844 62.7635 112.927 62.5994 112.927 62.3778V62.3395C112.927 61.858 112.784 61.4851 112.499 61.2209C112.213 60.9567 111.802 60.8246 111.265 60.8246C110.699 60.8246 110.249 60.9482 109.917 61.1953C109.588 61.4425 109.367 61.7344 109.252 62.071L107.091 61.7642C107.262 61.1676 107.543 60.669 107.935 60.2685C108.327 59.8636 108.806 59.5611 109.373 59.3608C109.94 59.1562 110.566 59.054 111.252 59.054C111.725 59.054 112.196 59.1094 112.665 59.2202C113.134 59.331 113.562 59.5142 113.95 59.7699C114.338 60.0213 114.649 60.3643 114.883 60.799C115.122 61.2337 115.241 61.777 115.241 62.429V69H113.017V67.6513H112.94C112.799 67.924 112.601 68.1797 112.346 68.4183C112.094 68.6527 111.777 68.8423 111.393 68.9872C111.014 69.1278 110.569 69.1982 110.057 69.1982ZM110.658 67.4979C111.123 67.4979 111.525 67.4062 111.866 67.223C112.207 67.0355 112.469 66.7884 112.652 66.4815C112.84 66.1747 112.934 65.8402 112.934 65.478V64.321C112.861 64.3807 112.738 64.4361 112.563 64.4872C112.392 64.5384 112.201 64.5831 111.988 64.6214C111.775 64.6598 111.564 64.6939 111.355 64.7237C111.146 64.7536 110.965 64.7791 110.811 64.8004C110.466 64.8473 110.157 64.924 109.885 65.0305C109.612 65.1371 109.397 65.2862 109.239 65.478C109.081 65.6655 109.002 65.9084 109.002 66.2067C109.002 66.6328 109.158 66.9545 109.469 67.1719C109.78 67.3892 110.176 67.4979 110.658 67.4979ZM122.471 59.1818V60.9716H116.826V59.1818H122.471ZM118.22 56.8295H120.534V66.0469C120.534 66.358 120.581 66.5966 120.674 66.7628C120.772 66.9247 120.9 67.0355 121.058 67.0952C121.216 67.1548 121.39 67.1847 121.582 67.1847C121.727 67.1847 121.859 67.174 121.978 67.1527C122.102 67.1314 122.196 67.1122 122.26 67.0952L122.65 68.9041C122.526 68.9467 122.349 68.9936 122.119 69.0447C121.893 69.0959 121.616 69.1257 121.288 69.1342C120.708 69.1513 120.186 69.0639 119.722 68.8722C119.257 68.6761 118.889 68.3736 118.616 67.9645C118.348 67.5554 118.216 67.044 118.22 66.4304V56.8295ZM127.231 69.1982C126.609 69.1982 126.048 69.0874 125.55 68.8658C125.056 68.6399 124.664 68.3075 124.374 67.8686C124.088 67.4297 123.945 66.8885 123.945 66.245C123.945 65.6911 124.048 65.233 124.252 64.8707C124.457 64.5085 124.736 64.2188 125.09 64.0014C125.443 63.7841 125.842 63.62 126.285 63.5092C126.732 63.3942 127.195 63.3111 127.672 63.2599C128.247 63.2003 128.714 63.147 129.072 63.1001C129.43 63.049 129.69 62.9723 129.852 62.87C130.018 62.7635 130.101 62.5994 130.101 62.3778V62.3395C130.101 61.858 129.958 61.4851 129.673 61.2209C129.387 60.9567 128.976 60.8246 128.439 60.8246C127.872 60.8246 127.423 60.9482 127.09 61.1953C126.762 61.4425 126.541 61.7344 126.426 62.071L124.265 61.7642C124.436 61.1676 124.717 60.669 125.109 60.2685C125.501 59.8636 125.98 59.5611 126.547 59.3608C127.114 59.1562 127.74 59.054 128.426 59.054C128.899 59.054 129.37 59.1094 129.839 59.2202C130.308 59.331 130.736 59.5142 131.124 59.7699C131.512 60.0213 131.823 60.3643 132.057 60.799C132.296 61.2337 132.415 61.777 132.415 62.429V69H130.191V67.6513H130.114C129.973 67.924 129.775 68.1797 129.519 68.4183C129.268 68.6527 128.95 68.8423 128.567 68.9872C128.188 69.1278 127.742 69.1982 127.231 69.1982ZM127.832 67.4979C128.296 67.4979 128.699 67.4062 129.04 67.223C129.381 67.0355 129.643 66.7884 129.826 66.4815C130.014 66.1747 130.107 65.8402 130.107 65.478V64.321C130.035 64.3807 129.911 64.4361 129.737 64.4872C129.566 64.5384 129.374 64.5831 129.161 64.6214C128.948 64.6598 128.737 64.6939 128.529 64.7237C128.32 64.7536 128.139 64.7791 127.985 64.8004C127.64 64.8473 127.331 64.924 127.058 65.0305C126.786 65.1371 126.57 65.2862 126.413 65.478C126.255 65.6655 126.176 65.9084 126.176 66.2067C126.176 66.6328 126.332 66.9545 126.643 67.1719C126.954 67.3892 127.35 67.4979 127.832 67.4979ZM139.309 69V55.9091H144.218C145.224 55.9091 146.067 56.0966 146.749 56.4716C147.435 56.8466 147.953 57.3622 148.302 58.0185C148.656 58.6705 148.833 59.4119 148.833 60.2429C148.833 61.0824 148.656 61.8281 148.302 62.4801C147.949 63.1321 147.427 63.6456 146.736 64.0206C146.046 64.3913 145.196 64.5767 144.186 64.5767H140.932V62.6271H143.866C144.454 62.6271 144.936 62.5249 145.311 62.3203C145.686 62.1158 145.963 61.8345 146.142 61.4766C146.325 61.1186 146.417 60.7074 146.417 60.2429C146.417 59.7784 146.325 59.3693 146.142 59.0156C145.963 58.6619 145.684 58.3871 145.305 58.1911C144.93 57.9908 144.446 57.8906 143.854 57.8906H141.68V69H139.309ZM153.104 55.9091V69H150.79V55.9091H153.104ZM158.309 69.1982C157.687 69.1982 157.127 69.0874 156.628 68.8658C156.134 68.6399 155.742 68.3075 155.452 67.8686C155.166 67.4297 155.024 66.8885 155.024 66.245C155.024 65.6911 155.126 65.233 155.33 64.8707C155.535 64.5085 155.814 64.2188 156.168 64.0014C156.521 63.7841 156.92 63.62 157.363 63.5092C157.811 63.3942 158.273 63.3111 158.75 63.2599C159.325 63.2003 159.792 63.147 160.15 63.1001C160.508 63.049 160.768 62.9723 160.93 62.87C161.096 62.7635 161.179 62.5994 161.179 62.3778V62.3395C161.179 61.858 161.036 61.4851 160.751 61.2209C160.465 60.9567 160.054 60.8246 159.517 60.8246C158.95 60.8246 158.501 60.9482 158.169 61.1953C157.84 61.4425 157.619 61.7344 157.504 62.071L155.343 61.7642C155.514 61.1676 155.795 60.669 156.187 60.2685C156.579 59.8636 157.058 59.5611 157.625 59.3608C158.192 59.1562 158.818 59.054 159.504 59.054C159.977 59.054 160.448 59.1094 160.917 59.2202C161.386 59.331 161.814 59.5142 162.202 59.7699C162.59 60.0213 162.901 60.3643 163.135 60.799C163.374 61.2337 163.493 61.777 163.493 62.429V69H161.269V67.6513H161.192C161.051 67.924 160.853 68.1797 160.597 68.4183C160.346 68.6527 160.029 68.8423 159.645 68.9872C159.266 69.1278 158.82 69.1982 158.309 69.1982ZM158.91 67.4979C159.374 67.4979 159.777 67.4062 160.118 67.223C160.459 67.0355 160.721 66.7884 160.904 66.4815C161.092 66.1747 161.186 65.8402 161.186 65.478V64.321C161.113 64.3807 160.99 64.4361 160.815 64.4872C160.644 64.5384 160.453 64.5831 160.24 64.6214C160.026 64.6598 159.816 64.6939 159.607 64.7237C159.398 64.7536 159.217 64.7791 159.063 64.8004C158.718 64.8473 158.409 64.924 158.137 65.0305C157.864 65.1371 157.649 65.2862 157.491 65.478C157.333 65.6655 157.254 65.9084 157.254 66.2067C157.254 66.6328 157.41 66.9545 157.721 67.1719C158.032 67.3892 158.428 67.4979 158.91 67.4979ZM168.134 63.2472V69H165.82V59.1818H168.031V60.8501H168.146C168.372 60.3004 168.732 59.8636 169.227 59.5398C169.725 59.2159 170.341 59.054 171.074 59.054C171.752 59.054 172.342 59.1989 172.845 59.4886C173.352 59.7784 173.744 60.1982 174.021 60.7479C174.302 61.2976 174.441 61.9645 174.436 62.7486V69H172.122V63.1065C172.122 62.4503 171.952 61.9368 171.611 61.5661C171.274 61.1953 170.808 61.0099 170.211 61.0099C169.806 61.0099 169.446 61.0994 169.131 61.2784C168.82 61.4531 168.575 61.7067 168.396 62.0391C168.221 62.3714 168.134 62.7741 168.134 63.2472ZM181.135 69.1918C180.151 69.1918 179.301 68.9872 178.585 68.5781C177.873 68.1648 177.325 67.581 176.942 66.8267C176.558 66.0682 176.367 65.1754 176.367 64.1484C176.367 63.1385 176.558 62.2521 176.942 61.4893C177.33 60.7223 177.871 60.1257 178.566 59.6996C179.26 59.2692 180.076 59.054 181.014 59.054C181.619 59.054 182.19 59.152 182.727 59.348C183.268 59.5398 183.745 59.8381 184.159 60.2429C184.576 60.6477 184.904 61.1634 185.143 61.7898C185.382 62.4119 185.501 63.1534 185.501 64.0142V64.7237H177.453V63.1641H183.283C183.279 62.7209 183.183 62.3267 182.995 61.9815C182.808 61.6321 182.546 61.3572 182.209 61.157C181.877 60.9567 181.489 60.8565 181.046 60.8565C180.573 60.8565 180.157 60.9716 179.799 61.2017C179.441 61.4276 179.162 61.7259 178.962 62.0966C178.766 62.4631 178.666 62.8658 178.661 63.3047V64.6662C178.661 65.2372 178.766 65.7273 178.975 66.1364C179.183 66.5412 179.475 66.8523 179.85 67.0696C180.225 67.2827 180.664 67.3892 181.167 67.3892C181.504 67.3892 181.808 67.3423 182.081 67.2486C182.354 67.1506 182.59 67.0078 182.791 66.8203C182.991 66.6328 183.142 66.4006 183.244 66.1236L185.405 66.3665C185.269 66.9375 185.009 67.4361 184.625 67.8622C184.246 68.2841 183.76 68.6122 183.168 68.8466C182.575 69.0767 181.898 69.1918 181.135 69.1918ZM101.406 81.5078C101.346 80.9496 101.094 80.5149 100.651 80.2038C100.212 79.8928 99.6413 79.7372 98.9382 79.7372C98.4439 79.7372 98.0199 79.8118 97.6662 79.9609C97.3125 80.1101 97.0419 80.3125 96.8544 80.5682C96.6669 80.8239 96.571 81.1158 96.5668 81.4439C96.5668 81.7166 96.6286 81.9531 96.7521 82.1534C96.88 82.3537 97.0526 82.5241 97.2699 82.6648C97.4872 82.8011 97.728 82.9162 97.9922 83.0099C98.2564 83.1037 98.5227 83.1825 98.7912 83.2464L100.018 83.5533C100.513 83.6683 100.988 83.8239 101.444 84.0199C101.904 84.2159 102.315 84.4631 102.678 84.7614C103.044 85.0597 103.334 85.4197 103.547 85.8416C103.76 86.2635 103.866 86.7578 103.866 87.3246C103.866 88.0916 103.67 88.767 103.278 89.3509C102.886 89.9304 102.32 90.3842 101.578 90.7124C100.841 91.0362 99.9482 91.1982 98.8999 91.1982C97.8814 91.1982 96.9972 91.0405 96.2472 90.7251C95.5014 90.4098 94.9176 89.9496 94.4957 89.3445C94.0781 88.7393 93.8523 88.0021 93.8182 87.1328H96.1513C96.1854 87.5888 96.326 87.968 96.5732 88.2706C96.8203 88.5732 97.142 88.799 97.5384 88.9482C97.9389 89.0973 98.3864 89.1719 98.8807 89.1719C99.3963 89.1719 99.848 89.0952 100.236 88.9418C100.628 88.7841 100.935 88.5668 101.156 88.2898C101.378 88.0085 101.491 87.6804 101.495 87.3054C101.491 86.9645 101.391 86.6832 101.195 86.4616C100.999 86.2358 100.724 86.0483 100.37 85.8991C100.021 85.7457 99.6115 85.6094 99.1428 85.4901L97.6534 85.1065C96.5753 84.8295 95.723 84.4098 95.0966 83.8473C94.4744 83.2805 94.1634 82.5284 94.1634 81.5909C94.1634 80.8196 94.3722 80.1442 94.7898 79.5646C95.2116 78.9851 95.7848 78.5355 96.5092 78.2159C97.2337 77.892 98.054 77.7301 98.9702 77.7301C99.8991 77.7301 100.713 77.892 101.412 78.2159C102.115 78.5355 102.667 78.9808 103.067 79.5518C103.468 80.1186 103.675 80.7706 103.688 81.5078H101.406ZM110.417 91H105.981V77.9091H110.506C111.806 77.9091 112.922 78.1712 113.856 78.6953C114.793 79.2152 115.513 79.9631 116.016 80.9389C116.519 81.9148 116.77 83.0824 116.77 84.4418C116.77 85.8054 116.517 86.9773 116.01 87.9574C115.507 88.9375 114.78 89.6896 113.83 90.2138C112.884 90.7379 111.746 91 110.417 91ZM108.352 88.9482H110.302C111.214 88.9482 111.974 88.782 112.584 88.4496C113.193 88.1129 113.651 87.6122 113.958 86.9474C114.265 86.2784 114.418 85.4432 114.418 84.4418C114.418 83.4403 114.265 82.6094 113.958 81.9489C113.651 81.2841 113.197 80.7876 112.596 80.4595C112 80.1271 111.258 79.9609 110.372 79.9609H108.352V88.9482ZM119.024 91V77.9091H121.395V83.924H121.555L126.662 77.9091H129.558L124.495 83.7834L129.602 91H126.752L122.846 85.3878L121.395 87.1009V91H119.024Z" fill="black"/>
</svg>
